<?xml version="1.0" encoding="UTF-8" standalone="no"?>
<!-- Created with Inkscape (http://www.inkscape.org/) -->

<svg
   width="26.245695"
   height="27.859779"
   viewBox="0 0 26.245695 27.859779"
   version="1.1"
   id="svg1"
   xml:space="preserve"
   inkscape:version="1.4-beta (62f545b, 2024-04-22)"
   sodipodi:docname="hq.svg"
   xmlns:inkscape="http://www.inkscape.org/namespaces/inkscape"
   xmlns:sodipodi="http://sodipodi.sourceforge.net/DTD/sodipodi-0.dtd"
   xmlns="http://www.w3.org/2000/svg"
   xmlns:svg="http://www.w3.org/2000/svg"
   xmlns:rdf="http://www.w3.org/1999/02/22-rdf-syntax-ns#"
   xmlns:cc="http://creativecommons.org/ns#"
   xmlns:dc="http://purl.org/dc/elements/1.1/"><defs
     id="defs1" /><sodipodi:namedview
     id="base"
     pagecolor="#733e3e"
     bordercolor="#000000"
     borderopacity="0.3"
     inkscape:pageopacity="0.0"
     inkscape:pageshadow="2"
     inkscape:zoom="12.607254"
     inkscape:cx="30.855252"
     inkscape:cy="21.852499"
     inkscape:document-units="px"
     inkscape:showpageshadow="2"
     inkscape:pagecheckerboard="true"
     inkscape:deskcolor="#d1d1d1"
     showborder="false"
     inkscape:window-width="3440"
     inkscape:window-height="1440"
     inkscape:window-x="0"
     inkscape:window-y="0"
     inkscape:window-maximized="1"
     inkscape:current-layer="svg1"
     showgrid="true"><inkscape:grid
       id="grid1"
       units="px"
       originx="0"
       originy="0"
       spacingx="1"
       spacingy="1"
       empcolor="#0099e5"
       empopacity="0.30196078"
       color="#0099e5"
       opacity="0.14901961"
       empspacing="5"
       enabled="true"
       visible="false"
       snapvisiblegridlinesonly="false"
       dotted="false" /><inkscape:grid
       id="grid2"
       units="px"
       originx="0"
       originy="0"
       spacingx="2"
       spacingy="2"
       empcolor="#005fe5"
       empopacity="0.30196078"
       color="#0060e5"
       opacity="0.14901961"
       empspacing="5"
       enabled="true"
       visible="true"
       snapvisiblegridlinesonly="false" /></sodipodi:namedview><metadata
     id="metadata1"><rdf:RDF><cc:Work
         rdf:about=""><dc:format>image/svg+xml</dc:format><dc:type
           rdf:resource="http://purl.org/dc/dcmitype/StillImage" /></cc:Work></rdf:RDF></metadata><g
     id="g169"
     inkscape:label="hq"
     style="display:inline;fill:#ffffff"
     transform="translate(-6,-244)"><path
       id="path173"
       style="display:inline;fill:none;fill-opacity:1;stroke:#0d0d0d;stroke-width:4;stroke-linejoin:round;stroke-dasharray:none;stroke-dashoffset:0.8;stroke-opacity:1;paint-order:stroke fill markers"
       d="m 18.593367,253.85978 a 8,8 0 0 0 -8,8 8,8 0 0 0 8,8 8,8 0 0 0 1.070312,-0.0762 6,6 0 0 1 -5.070312,-5.9238 6,6 0 0 1 6,-6 6,6 0 0 1 5.923828,5.05469 8,8 0 0 0 0.07617,-1.05469 8,8 0 0 0 -8,-8 z" /><path
       id="path170"
       style="display:inline;fill:#ffffff;fill-opacity:1;stroke:#0d0d0d;stroke-width:4;stroke-linejoin:round;stroke-dasharray:none;stroke-dashoffset:0.8;stroke-opacity:1;paint-order:stroke fill markers"
       d="M 20,246 A 12,12 0 0 0 8,258 12,12 0 0 0 13.765625,268.23438 12,12 0 0 1 12,262 12,12 0 0 1 24,250 12,12 0 0 1 30.246094,251.75391 12,12 0 0 0 20,246 Z" /><path
       id="path172"
       style="fill:#ffffff;fill-opacity:1;stroke:none;stroke-width:4;stroke-linejoin:round;stroke-dasharray:none;stroke-dashoffset:0.8;stroke-opacity:1;paint-order:stroke fill markers"
       d="m 18.593367,253.85978 a 8,8 0 0 0 -8,8 8,8 0 0 0 8,8 8,8 0 0 0 1.070312,-0.0762 6,6 0 0 1 -5.070312,-5.9238 6,6 0 0 1 6,-6 6,6 0 0 1 5.923828,5.05469 8,8 0 0 0 0.07617,-1.05469 8,8 0 0 0 -8,-8 z" /></g></svg>
